{
	"asset":{
		"generator":"Khronos glTF Blender I/O v4.0.44",
		"version":"2.0"
	},
	"scene":0,
	"scenes":[
		{
			"name":"Scene",
			"nodes":[
				0
			]
		}
	],
	"nodes":[
		{
			"mesh":0,
			"name":"couch",
			"scale":[
				4.597955703735352,
				4.597955703735352,
				17.91244125366211
			],
			"translation":[
				-8.369858741760254,
				8.976044654846191,
				-7.821026802062988
			]
		}
	],
	"materials":[
		{
			"doubleSided":true,
			"name":"Couch_1",
			"pbrMetallicRoughness":{
				"baseColorTexture":{
					"index":0
				},
				"metallicFactor":0,
				"roughnessFactor":0.5
			}
		}
	],
	"meshes":[
		{
			"name":"Cube.003",
			"primitives":[
				{
					"attributes":{
						"POSITION":0,
						"NORMAL":1,
						"TEXCOORD_0":2
					},
					"indices":3,
					"material":0
				}
			]
		}
	],
	"textures":[
		{
			"sampler":0,
			"source":0
		}
	],
	"images":[
		{
			"mimeType":"image/png",
			"name":"Couch",
			"uri":"Couch.png"
		}
	],
	"accessors":[
		{
			"bufferView":0,
			"componentType":5126,
			"count":1398,
			"max":[
				1.5614714622497559,
				1,
				1
			],
			"min":[
				-1,
				-1.7170077562332153,
				-1
			],
			"type":"VEC3"
		},
		{
			"bufferView":1,
			"componentType":5126,
			"count":1398,
			"type":"VEC3"
		},
		{
			"bufferView":2,
			"componentType":5126,
			"count":1398,
			"type":"VEC2"
		},
		{
			"bufferView":3,
			"componentType":5123,
			"count":4056,
			"type":"SCALAR"
		}
	],
	"bufferViews":[
		{
			"buffer":0,
			"byteLength":16776,
			"byteOffset":0,
			"target":34962
		},
		{
			"buffer":0,
			"byteLength":16776,
			"byteOffset":16776,
			"target":34962
		},
		{
			"buffer":0,
			"byteLength":11184,
			"byteOffset":33552,
			"target":34962
		},
		{
			"buffer":0,
			"byteLength":8112,
			"byteOffset":44736,
			"target":34963
		}
	],
	"samplers":[
		{
			"magFilter":9729,
			"minFilter":9987
		}
	],
	"buffers":[
		{
			"byteLength":52848,
			"uri":"delosReyes_couch_2.bin"
		}
	]
}
