{
	"asset":{
		"generator":"Khronos glTF Blender I/O v4.0.44",
		"version":"2.0"
	},
	"extensionsUsed":[
		"KHR_materials_emissive_strength"
	],
	"scene":0,
	"scenes":[
		{
			"name":"Scene",
			"nodes":[
				0
			]
		}
	],
	"nodes":[
		{
			"mesh":0,
			"name":"fanLight",
			"scale":[
				1.1689873933792114,
				1.273786187171936,
				1.1689873933792114
			],
			"translation":[
				10.280945777893066,
				23.88481330871582,
				-7.697787284851074
			]
		}
	],
	"materials":[
		{
			"doubleSided":true,
			"emissiveFactor":[
				0.8070996999740601,
				1,
				0.01631353795528412
			],
			"extensions":{
				"KHR_materials_emissive_strength":{
					"emissiveStrength":5
				}
			},
			"name":"fanLight",
			"pbrMetallicRoughness":{
				"baseColorFactor":[
					0,
					0,
					0,
					1
				]
			}
		}
	],
	"meshes":[
		{
			"name":"Sphere",
			"primitives":[
				{
					"attributes":{
						"POSITION":0,
						"NORMAL":1,
						"TEXCOORD_0":2
					},
					"indices":3,
					"material":0
				}
			]
		}
	],
	"accessors":[
		{
			"bufferView":0,
			"componentType":5126,
			"count":304,
			"max":[
				0.8314695358276367,
				0.2466641068458557,
				0.8314695358276367
			],
			"min":[
				-0.8314694762229919,
				-0.11349738389253616,
				-0.8314695358276367
			],
			"type":"VEC3"
		},
		{
			"bufferView":1,
			"componentType":5126,
			"count":304,
			"type":"VEC3"
		},
		{
			"bufferView":2,
			"componentType":5126,
			"count":304,
			"type":"VEC2"
		},
		{
			"bufferView":3,
			"componentType":5123,
			"count":432,
			"type":"SCALAR"
		}
	],
	"bufferViews":[
		{
			"buffer":0,
			"byteLength":3648,
			"byteOffset":0,
			"target":34962
		},
		{
			"buffer":0,
			"byteLength":3648,
			"byteOffset":3648,
			"target":34962
		},
		{
			"buffer":0,
			"byteLength":2432,
			"byteOffset":7296,
			"target":34962
		},
		{
			"buffer":0,
			"byteLength":864,
			"byteOffset":9728,
			"target":34963
		}
	],
	"buffers":[
		{
			"byteLength":10592,
			"uri":"delosReyes_fanLight.bin"
		}
	]
}
