{
	"asset":{
		"generator":"Khronos glTF Blender I/O v4.0.44",
		"version":"2.0"
	},
	"scene":0,
	"scenes":[
		{
			"name":"Scene",
			"nodes":[
				0
			]
		}
	],
	"nodes":[
		{
			"mesh":0,
			"name":"fanSupport",
			"scale":[
				1.4470664262771606,
				2.735771656036377,
				1.4470664262771606
			],
			"translation":[
				10.288837432861328,
				25.355825424194336,
				-7.704276084899902
			]
		}
	],
	"materials":[
		{
			"doubleSided":true,
			"name":"FanSupport",
			"pbrMetallicRoughness":{
				"baseColorFactor":[
					0.34228089451789856,
					0.34228089451789856,
					0.34228089451789856,
					1
				],
				"roughnessFactor":0.25
			}
		}
	],
	"meshes":[
		{
			"name":"Circle.004",
			"primitives":[
				{
					"attributes":{
						"POSITION":0,
						"NORMAL":1,
						"TEXCOORD_0":2
					},
					"indices":3,
					"material":0
				}
			]
		}
	],
	"accessors":[
		{
			"bufferView":0,
			"componentType":5126,
			"count":1200,
			"max":[
				6.200466156005859,
				2.605790138244629,
				6.0580573081970215
			],
			"min":[
				-5.982020378112793,
				-0.09333156049251556,
				-6.124429225921631
			],
			"type":"VEC3"
		},
		{
			"bufferView":1,
			"componentType":5126,
			"count":1200,
			"type":"VEC3"
		},
		{
			"bufferView":2,
			"componentType":5126,
			"count":1200,
			"type":"VEC2"
		},
		{
			"bufferView":3,
			"componentType":5123,
			"count":2436,
			"type":"SCALAR"
		}
	],
	"bufferViews":[
		{
			"buffer":0,
			"byteLength":14400,
			"byteOffset":0,
			"target":34962
		},
		{
			"buffer":0,
			"byteLength":14400,
			"byteOffset":14400,
			"target":34962
		},
		{
			"buffer":0,
			"byteLength":9600,
			"byteOffset":28800,
			"target":34962
		},
		{
			"buffer":0,
			"byteLength":4872,
			"byteOffset":38400,
			"target":34963
		}
	],
	"buffers":[
		{
			"byteLength":43272,
			"uri":"delosReyes_fanSupport.bin"
		}
	]
}
