{
	"asset":{
		"generator":"Khronos glTF Blender I/O v4.0.44",
		"version":"2.0"
	},
	"scene":0,
	"scenes":[
		{
			"name":"Scene",
			"nodes":[
				0
			]
		}
	],
	"nodes":[
		{
			"mesh":0,
			"name":"bed",
			"scale":[
				12.711105346679688,
				4.012840747833252,
				15.616373062133789
			],
			"translation":[
				13.074684143066406,
				8.459871292114258,
				-62.13475799560547
			]
		}
	],
	"materials":[
		{
			"doubleSided":true,
			"name":"bedSheet",
			"pbrMetallicRoughness":{
				"metallicFactor":0,
				"roughnessFactor":0.5462960004806519
			}
		}
	],
	"meshes":[
		{
			"name":"Cube.007",
			"primitives":[
				{
					"attributes":{
						"POSITION":0,
						"NORMAL":1,
						"TEXCOORD_0":2
					},
					"indices":3,
					"material":0
				}
			]
		}
	],
	"accessors":[
		{
			"bufferView":0,
			"componentType":5126,
			"count":2650,
			"max":[
				1.0000001192092896,
				1.0000001192092896,
				1.0000001192092896
			],
			"min":[
				-1.0000001192092896,
				-1.0000001192092896,
				-1.0000001192092896
			],
			"type":"VEC3"
		},
		{
			"bufferView":1,
			"componentType":5126,
			"count":2650,
			"type":"VEC3"
		},
		{
			"bufferView":2,
			"componentType":5126,
			"count":2650,
			"type":"VEC2"
		},
		{
			"bufferView":3,
			"componentType":5123,
			"count":5184,
			"type":"SCALAR"
		}
	],
	"bufferViews":[
		{
			"buffer":0,
			"byteLength":31800,
			"byteOffset":0,
			"target":34962
		},
		{
			"buffer":0,
			"byteLength":31800,
			"byteOffset":31800,
			"target":34962
		},
		{
			"buffer":0,
			"byteLength":21200,
			"byteOffset":63600,
			"target":34962
		},
		{
			"buffer":0,
			"byteLength":10368,
			"byteOffset":84800,
			"target":34963
		}
	],
	"buffers":[
		{
			"byteLength":95168,
			"uri":"delosReyes_bed.bin"
		}
	]
}
