{
	"asset":{
		"generator":"Khronos glTF Blender I/O v4.0.44",
		"version":"2.0"
	},
	"extensionsUsed":[
		"EXT_texture_webp",
		"KHR_materials_emissive_strength",
		"KHR_materials_transmission"
	],
	"extensionsRequired":[
		"EXT_texture_webp"
	],
	"scene":0,
	"scenes":[
		{
			"name":"Scene",
			"nodes":[
				0,
				1,
				2,
				3,
				4,
				5,
				6,
				7,
				8,
				9,
				10,
				11,
				12,
				13
			]
		}
	],
	"nodes":[
		{
			"mesh":0,
			"name":"couch",
			"scale":[
				4.597955703735352,
				4.597955703735352,
				17.91244125366211
			],
			"translation":[
				-8.369858741760254,
				8.976044654846191,
				-7.821026802062988
			]
		},
		{
			"mesh":1,
			"name":"table",
			"rotation":[
				-0.2588190734386444,
				-0.965925931930542,
				0,
				4.2221966367606e-08
			],
			"scale":[
				0.22290462255477905,
				3,
				0.22290462255477905
			],
			"translation":[
				10.729193687438965,
				3.7049317359924316,
				-15.690147399902344
			]
		},
		{
			"mesh":2,
			"name":"couch_2",
			"scale":[
				3.351834774017334,
				2.2254812717437744,
				17.81344985961914
			],
			"translation":[
				27.361141204833984,
				6.771320819854736,
				-7.816109657287598
			]
		},
		{
			"mesh":3,
			"name":"bed",
			"scale":[
				12.711105346679688,
				4.012840747833252,
				15.616373062133789
			],
			"translation":[
				13.074684143066406,
				8.459871292114258,
				-62.13475799560547
			]
		},
		{
			"mesh":4,
			"name":"pillow",
			"scale":[
				5.679398059844971,
				1.214017629623413,
				2.849999189376831
			],
			"translation":[
				12.973677635192871,
				13.602872848510742,
				-73.09764099121094
			]
		},
		{
			"mesh":5,
			"name":"fanSupport",
			"scale":[
				1.4470664262771606,
				2.735771656036377,
				1.4470664262771606
			],
			"translation":[
				10.288837432861328,
				25.355825424194336,
				-7.704276084899902
			]
		},
		{
			"mesh":6,
			"name":"ceilingFan",
			"scale":[
				5.293442249298096,
				4.375194072723389,
				5.293442249298096
			],
			"translation":[
				10.288837432861328,
				25.098657608032227,
				-7.704276084899902
			]
		},
		{
			"mesh":7,
			"name":"fanLight",
			"scale":[
				1.1689873933792114,
				1.273786187171936,
				1.1689873933792114
			],
			"translation":[
				10.280945777893066,
				23.88481330871582,
				-7.697787284851074
			]
		},
		{
			"mesh":8,
			"name":"floor",
			"scale":[
				25,
				2.25,
				26.5
			],
			"translation":[
				11.649999618530273,
				2.299999952316284,
				-11.25
			]
		},
		{
			"mesh":9,
			"name":"window",
			"rotation":[
				0,
				0,
				-0.7071068286895752,
				0.7071068286895752
			],
			"scale":[
				16.5,
				5,
				26.5
			],
			"translation":[
				-18.407814025878906,
				22.154922485351562,
				-7.926992416381836
			]
		},
		{
			"mesh":10,
			"name":"bedroom",
			"rotation":[
				0.5,
				-0.5,
				-0.5,
				0.4999999701976776
			],
			"scale":[
				16.5,
				5,
				30.100000381469727
			],
			"translation":[
				6.599999904632568,
				16.5,
				-42.79999923706055
			]
		},
		{
			"mesh":11,
			"name":"bedroomDoor",
			"rotation":[
				0.7071068286895752,
				0,
				0,
				0.7071068286895752
			],
			"scale":[
				17.493669509887695,
				1,
				12.695911407470703
			],
			"translation":[
				16.320981979370117,
				18.361299514770508,
				-38.34154510498047
			]
		},
		{
			"mesh":12,
			"name":"neonLights",
			"rotation":[
				0,
				-1,
				0,
				4.371138828673793e-08
			],
			"scale":[
				17.11837387084961,
				0.24659693241119385,
				0.24659693241119385
			],
			"translation":[
				4.986128807067871,
				4.919795036315918,
				-11.569280624389648
			]
		},
		{
			"mesh":13,
			"name":"glass",
			"scale":[
				0.2397465854883194,
				8.95740032196045,
				20.36743927001953
			],
			"translation":[
				-17.93992805480957,
				20.70728874206543,
				-7.964393138885498
			]
		}
	],
	"animations":[
		{
			"channels":[
				{
					"sampler":0,
					"target":{
						"node":6,
						"path":"rotation"
					}
				}
			],
			"name":"ceilingFanAction",
			"samplers":[
				{
					"input":56,
					"interpolation":"LINEAR",
					"output":57
				}
			]
		},
		{
			"channels":[
				{
					"sampler":0,
					"target":{
						"node":11,
						"path":"translation"
					}
				},
				{
					"sampler":1,
					"target":{
						"node":11,
						"path":"rotation"
					}
				},
				{
					"sampler":2,
					"target":{
						"node":11,
						"path":"scale"
					}
				}
			],
			"name":"PlaneAction.001",
			"samplers":[
				{
					"input":58,
					"interpolation":"LINEAR",
					"output":59
				},
				{
					"input":60,
					"interpolation":"STEP",
					"output":61
				},
				{
					"input":58,
					"interpolation":"LINEAR",
					"output":62
				}
			]
		}
	],
	"materials":[
		{
			"doubleSided":true,
			"name":"Couch_1",
			"pbrMetallicRoughness":{
				"baseColorTexture":{
					"index":0
				},
				"metallicFactor":0,
				"roughnessFactor":0.5
			}
		},
		{
			"doubleSided":true,
			"name":"Material",
			"pbrMetallicRoughness":{
				"baseColorTexture":{
					"index":1
				},
				"metallicFactor":0.07500000298023224,
				"roughnessFactor":0.5
			}
		},
		{
			"doubleSided":true,
			"name":"Couch_2",
			"pbrMetallicRoughness":{
				"baseColorTexture":{
					"index":2
				},
				"metallicFactor":0,
				"roughnessFactor":0.5
			}
		},
		{
			"doubleSided":true,
			"name":"bedSheet",
			"pbrMetallicRoughness":{
				"metallicFactor":0,
				"roughnessFactor":0.5462960004806519
			}
		},
		{
			"doubleSided":true,
			"name":"pillow",
			"pbrMetallicRoughness":{
				"baseColorTexture":{
					"index":3
				},
				"metallicFactor":0,
				"roughnessFactor":0.5
			}
		},
		{
			"doubleSided":true,
			"name":"FanSupport",
			"pbrMetallicRoughness":{
				"baseColorFactor":[
					0.34228089451789856,
					0.34228089451789856,
					0.34228089451789856,
					1
				],
				"roughnessFactor":0.25
			}
		},
		{
			"doubleSided":true,
			"emissiveFactor":[
				0.8070996999740601,
				1,
				0.01631353795528412
			],
			"extensions":{
				"KHR_materials_emissive_strength":{
					"emissiveStrength":5
				}
			},
			"name":"fanLight",
			"pbrMetallicRoughness":{
				"baseColorFactor":[
					0,
					0,
					0,
					1
				]
			}
		},
		{
			"doubleSided":true,
			"name":"Floor",
			"pbrMetallicRoughness":{
				"baseColorTexture":{
					"index":4
				},
				"metallicFactor":0,
				"roughnessFactor":0.5
			}
		},
		{
			"doubleSided":true,
			"name":"Concrete",
			"pbrMetallicRoughness":{
				"baseColorFactor":[
					0.04373428598046303,
					0.04231060668826103,
					0.04231060668826103,
					1
				],
				"metallicFactor":0,
				"roughnessFactor":0.5
			}
		},
		{
			"doubleSided":true,
			"name":"Bedroom",
			"pbrMetallicRoughness":{
				"baseColorTexture":{
					"index":5
				},
				"metallicFactor":0,
				"roughnessFactor":0.5
			}
		},
		{
			"doubleSided":true,
			"name":"bedroomDoor",
			"pbrMetallicRoughness":{
				"baseColorTexture":{
					"index":6
				},
				"metallicFactor":0,
				"roughnessFactor":0.5
			}
		},
		{
			"doubleSided":true,
			"emissiveFactor":[
				1,
				1,
				1
			],
			"emissiveTexture":{
				"index":7
			},
			"extensions":{
				"KHR_materials_emissive_strength":{
					"emissiveStrength":10
				}
			},
			"name":"Material.004",
			"pbrMetallicRoughness":{
				"baseColorTexture":{
					"index":8
				},
				"metallicFactor":0,
				"roughnessFactor":0
			}
		},
		{
			"doubleSided":true,
			"extensions":{
				"KHR_materials_transmission":{
					"transmissionFactor":1
				}
			},
			"name":"glass_2",
			"pbrMetallicRoughness":{
				"metallicFactor":0,
				"roughnessFactor":0
			}
		}
	],
	"meshes":[
		{
			"name":"Cube.003",
			"primitives":[
				{
					"attributes":{
						"POSITION":0,
						"NORMAL":1,
						"TEXCOORD_0":2
					},
					"indices":3,
					"material":0
				}
			]
		},
		{
			"name":"Cylinder.001",
			"primitives":[
				{
					"attributes":{
						"POSITION":4,
						"NORMAL":5,
						"TEXCOORD_0":6
					},
					"indices":7,
					"material":1
				}
			]
		},
		{
			"name":"Cube.004",
			"primitives":[
				{
					"attributes":{
						"POSITION":8,
						"NORMAL":9,
						"TEXCOORD_0":10
					},
					"indices":11,
					"material":2
				}
			]
		},
		{
			"name":"Cube.007",
			"primitives":[
				{
					"attributes":{
						"POSITION":12,
						"NORMAL":13,
						"TEXCOORD_0":14
					},
					"indices":15,
					"material":3
				}
			]
		},
		{
			"name":"Cube.008",
			"primitives":[
				{
					"attributes":{
						"POSITION":16,
						"NORMAL":17,
						"TEXCOORD_0":18
					},
					"indices":19,
					"material":4
				}
			]
		},
		{
			"name":"Circle.004",
			"primitives":[
				{
					"attributes":{
						"POSITION":20,
						"NORMAL":21,
						"TEXCOORD_0":22
					},
					"indices":23,
					"material":5
				}
			]
		},
		{
			"name":"Circle.005",
			"primitives":[
				{
					"attributes":{
						"POSITION":24,
						"NORMAL":25,
						"TEXCOORD_0":26
					},
					"indices":27,
					"material":5
				}
			]
		},
		{
			"name":"Sphere",
			"primitives":[
				{
					"attributes":{
						"POSITION":28,
						"NORMAL":29,
						"TEXCOORD_0":30
					},
					"indices":31,
					"material":6
				}
			]
		},
		{
			"name":"Cube.002",
			"primitives":[
				{
					"attributes":{
						"POSITION":32,
						"NORMAL":33,
						"TEXCOORD_0":34
					},
					"indices":35,
					"material":7
				}
			]
		},
		{
			"name":"Cube.006",
			"primitives":[
				{
					"attributes":{
						"POSITION":36,
						"NORMAL":37,
						"TEXCOORD_0":38
					},
					"indices":39,
					"material":8
				}
			]
		},
		{
			"name":"Cube.009",
			"primitives":[
				{
					"attributes":{
						"POSITION":40,
						"NORMAL":41,
						"TEXCOORD_0":42
					},
					"indices":43,
					"material":9
				}
			]
		},
		{
			"name":"Plane",
			"primitives":[
				{
					"attributes":{
						"POSITION":44,
						"NORMAL":45,
						"TEXCOORD_0":46
					},
					"indices":47,
					"material":10
				}
			]
		},
		{
			"name":"Cube.020",
			"primitives":[
				{
					"attributes":{
						"POSITION":48,
						"NORMAL":49,
						"TEXCOORD_0":50
					},
					"indices":51,
					"material":11
				}
			]
		},
		{
			"name":"Cube.005",
			"primitives":[
				{
					"attributes":{
						"POSITION":52,
						"NORMAL":53,
						"TEXCOORD_0":54
					},
					"indices":55,
					"material":12
				}
			]
		}
	],
	"textures":[
		{
			"sampler":0,
			"source":0
		},
		{
			"extensions":{
				"EXT_texture_webp":{
					"source":1
				}
			},
			"sampler":0
		},
		{
			"sampler":0,
			"source":2
		},
		{
			"sampler":0,
			"source":3
		},
		{
			"sampler":0,
			"source":4
		},
		{
			"sampler":0,
			"source":5
		},
		{
			"sampler":0,
			"source":6
		},
		{
			"sampler":0,
			"source":7
		},
		{
			"sampler":0,
			"source":7
		}
	],
	"images":[
		{
			"mimeType":"image/png",
			"name":"Couch",
			"uri":"Couch.png"
		},
		{
			"mimeType":"image/webp",
			"name":"Table",
			"uri":"Table.webp"
		},
		{
			"mimeType":"image/png",
			"name":"Couch_2",
			"uri":"Couch_2.png"
		},
		{
			"mimeType":"image/png",
			"name":"Pillow",
			"uri":"Pillow.png"
		},
		{
			"mimeType":"image/jpeg",
			"name":"zebraPattern",
			"uri":"zebraPattern.jpg"
		},
		{
			"mimeType":"image/png",
			"name":"Bedroom",
			"uri":"Bedroom.png"
		},
		{
			"mimeType":"image/png",
			"name":"BedroomDoor",
			"uri":"BedroomDoor.png"
		},
		{
			"mimeType":"image/png",
			"name":"Neon Lights",
			"uri":"Neon%20Lights.png"
		}
	],
	"accessors":[
		{
			"bufferView":0,
			"componentType":5126,
			"count":1398,
			"max":[
				1.5614714622497559,
				1,
				1
			],
			"min":[
				-1,
				-1.7170077562332153,
				-1
			],
			"type":"VEC3"
		},
		{
			"bufferView":1,
			"componentType":5126,
			"count":1398,
			"type":"VEC3"
		},
		{
			"bufferView":2,
			"componentType":5126,
			"count":1398,
			"type":"VEC2"
		},
		{
			"bufferView":3,
			"componentType":5123,
			"count":4056,
			"type":"SCALAR"
		},
		{
			"bufferView":4,
			"componentType":5126,
			"count":832,
			"max":[
				26.53297233581543,
				1.7082288265228271,
				9.020328521728516
			],
			"min":[
				-22.9791259765625,
				-1.4732364416122437,
				-78.636474609375
			],
			"type":"VEC3"
		},
		{
			"bufferView":5,
			"componentType":5126,
			"count":832,
			"type":"VEC3"
		},
		{
			"bufferView":6,
			"componentType":5126,
			"count":832,
			"type":"VEC2"
		},
		{
			"bufferView":7,
			"componentType":5123,
			"count":1356,
			"type":"SCALAR"
		},
		{
			"bufferView":8,
			"componentType":5126,
			"count":5098,
			"max":[
				1.0000001192092896,
				0.9808430075645447,
				0.9978997707366943
			],
			"min":[
				-1.0000001192092896,
				-0.9975378513336182,
				-0.9962233304977417
			],
			"type":"VEC3"
		},
		{
			"bufferView":9,
			"componentType":5126,
			"count":5098,
			"type":"VEC3"
		},
		{
			"bufferView":10,
			"componentType":5126,
			"count":5098,
			"type":"VEC2"
		},
		{
			"bufferView":11,
			"componentType":5123,
			"count":12288,
			"type":"SCALAR"
		},
		{
			"bufferView":12,
			"componentType":5126,
			"count":2650,
			"max":[
				1.0000001192092896,
				1.0000001192092896,
				1.0000001192092896
			],
			"min":[
				-1.0000001192092896,
				-1.0000001192092896,
				-1.0000001192092896
			],
			"type":"VEC3"
		},
		{
			"bufferView":13,
			"componentType":5126,
			"count":2650,
			"type":"VEC3"
		},
		{
			"bufferView":14,
			"componentType":5126,
			"count":2650,
			"type":"VEC2"
		},
		{
			"bufferView":15,
			"componentType":5123,
			"count":5184,
			"type":"SCALAR"
		},
		{
			"bufferView":16,
			"componentType":5126,
			"count":112,
			"max":[
				1,
				1,
				1.0000001192092896
			],
			"min":[
				-1,
				-1,
				-1.0000001192092896
			],
			"type":"VEC3"
		},
		{
			"bufferView":17,
			"componentType":5126,
			"count":112,
			"type":"VEC3"
		},
		{
			"bufferView":18,
			"componentType":5126,
			"count":112,
			"type":"VEC2"
		},
		{
			"bufferView":19,
			"componentType":5123,
			"count":180,
			"type":"SCALAR"
		},
		{
			"bufferView":20,
			"componentType":5126,
			"count":1200,
			"max":[
				6.200466156005859,
				2.605790138244629,
				6.0580573081970215
			],
			"min":[
				-5.982020378112793,
				-0.09333156049251556,
				-6.124429225921631
			],
			"type":"VEC3"
		},
		{
			"bufferView":21,
			"componentType":5126,
			"count":1200,
			"type":"VEC3"
		},
		{
			"bufferView":22,
			"componentType":5126,
			"count":1200,
			"type":"VEC2"
		},
		{
			"bufferView":23,
			"componentType":5123,
			"count":2436,
			"type":"SCALAR"
		},
		{
			"bufferView":24,
			"componentType":5126,
			"count":544,
			"max":[
				1.2966313362121582,
				0,
				1.2966324090957642
			],
			"min":[
				-1.2966326475143433,
				-0.20832079648971558,
				-1.2966315746307373
			],
			"type":"VEC3"
		},
		{
			"bufferView":25,
			"componentType":5126,
			"count":544,
			"type":"VEC3"
		},
		{
			"bufferView":26,
			"componentType":5126,
			"count":544,
			"type":"VEC2"
		},
		{
			"bufferView":27,
			"componentType":5123,
			"count":948,
			"type":"SCALAR"
		},
		{
			"bufferView":28,
			"componentType":5126,
			"count":304,
			"max":[
				0.8314695358276367,
				0.2466641068458557,
				0.8314695358276367
			],
			"min":[
				-0.8314694762229919,
				-0.11349738389253616,
				-0.8314695358276367
			],
			"type":"VEC3"
		},
		{
			"bufferView":29,
			"componentType":5126,
			"count":304,
			"type":"VEC3"
		},
		{
			"bufferView":30,
			"componentType":5126,
			"count":304,
			"type":"VEC2"
		},
		{
			"bufferView":31,
			"componentType":5123,
			"count":432,
			"type":"SCALAR"
		},
		{
			"bufferView":32,
			"componentType":5126,
			"count":154,
			"max":[
				1,
				1,
				1
			],
			"min":[
				-1.002640724182129,
				-1,
				-1
			],
			"type":"VEC3"
		},
		{
			"bufferView":33,
			"componentType":5126,
			"count":154,
			"type":"VEC3"
		},
		{
			"bufferView":34,
			"componentType":5126,
			"count":154,
			"type":"VEC2"
		},
		{
			"bufferView":35,
			"componentType":5123,
			"count":312,
			"type":"SCALAR"
		},
		{
			"bufferView":36,
			"componentType":5126,
			"count":460,
			"max":[
				1.3427225351333618,
				1.0015628337860107,
				0.8746035099029541
			],
			"min":[
				-0.6572774648666382,
				-0.9984371662139893,
				-1.125396490097046
			],
			"type":"VEC3"
		},
		{
			"bufferView":37,
			"componentType":5126,
			"count":460,
			"type":"VEC3"
		},
		{
			"bufferView":38,
			"componentType":5126,
			"count":460,
			"type":"VEC2"
		},
		{
			"bufferView":39,
			"componentType":5123,
			"count":924,
			"type":"SCALAR"
		},
		{
			"bufferView":40,
			"componentType":5126,
			"count":304,
			"max":[
				1,
				0.9999980926513672,
				1.0000003576278687
			],
			"min":[
				-1,
				-7.000001907348633,
				-1.000000238418579
			],
			"type":"VEC3"
		},
		{
			"bufferView":41,
			"componentType":5126,
			"count":304,
			"type":"VEC3"
		},
		{
			"bufferView":42,
			"componentType":5126,
			"count":304,
			"type":"VEC2"
		},
		{
			"bufferView":43,
			"componentType":5123,
			"count":612,
			"type":"SCALAR"
		},
		{
			"bufferView":44,
			"componentType":5126,
			"count":152,
			"max":[
				1,
				0,
				1
			],
			"min":[
				-1,
				-0.125,
				-1
			],
			"type":"VEC3"
		},
		{
			"bufferView":45,
			"componentType":5126,
			"count":152,
			"type":"VEC3"
		},
		{
			"bufferView":46,
			"componentType":5126,
			"count":152,
			"type":"VEC2"
		},
		{
			"bufferView":47,
			"componentType":5123,
			"count":420,
			"type":"SCALAR"
		},
		{
			"bufferView":48,
			"componentType":5126,
			"count":160,
			"max":[
				0.7095097899436951,
				26.324424743652344,
				107.18826293945312
			],
			"min":[
				-1.6632895469665527,
				-15.09442138671875,
				-89.11378479003906
			],
			"type":"VEC3"
		},
		{
			"bufferView":49,
			"componentType":5126,
			"count":160,
			"type":"VEC3"
		},
		{
			"bufferView":50,
			"componentType":5126,
			"count":160,
			"type":"VEC2"
		},
		{
			"bufferView":51,
			"componentType":5123,
			"count":240,
			"type":"SCALAR"
		},
		{
			"bufferView":52,
			"componentType":5126,
			"count":24,
			"max":[
				1,
				1,
				1
			],
			"min":[
				-1,
				-1,
				-1
			],
			"type":"VEC3"
		},
		{
			"bufferView":53,
			"componentType":5126,
			"count":24,
			"type":"VEC3"
		},
		{
			"bufferView":54,
			"componentType":5126,
			"count":24,
			"type":"VEC2"
		},
		{
			"bufferView":55,
			"componentType":5123,
			"count":36,
			"type":"SCALAR"
		},
		{
			"bufferView":56,
			"componentType":5126,
			"count":251,
			"max":[
				10.416666666666666
			],
			"min":[
				0
			],
			"type":"SCALAR"
		},
		{
			"bufferView":57,
			"componentType":5126,
			"count":251,
			"type":"VEC4"
		},
		{
			"bufferView":58,
			"componentType":5126,
			"count":101,
			"max":[
				4.166666666666667
			],
			"min":[
				0
			],
			"type":"SCALAR"
		},
		{
			"bufferView":59,
			"componentType":5126,
			"count":101,
			"type":"VEC3"
		},
		{
			"bufferView":60,
			"componentType":5126,
			"count":2,
			"max":[
				4.166666666666667
			],
			"min":[
				0
			],
			"type":"SCALAR"
		},
		{
			"bufferView":61,
			"componentType":5126,
			"count":2,
			"type":"VEC4"
		},
		{
			"bufferView":62,
			"componentType":5126,
			"count":101,
			"type":"VEC3"
		}
	],
	"bufferViews":[
		{
			"buffer":0,
			"byteLength":16776,
			"byteOffset":0,
			"target":34962
		},
		{
			"buffer":0,
			"byteLength":16776,
			"byteOffset":16776,
			"target":34962
		},
		{
			"buffer":0,
			"byteLength":11184,
			"byteOffset":33552,
			"target":34962
		},
		{
			"buffer":0,
			"byteLength":8112,
			"byteOffset":44736,
			"target":34963
		},
		{
			"buffer":0,
			"byteLength":9984,
			"byteOffset":52848,
			"target":34962
		},
		{
			"buffer":0,
			"byteLength":9984,
			"byteOffset":62832,
			"target":34962
		},
		{
			"buffer":0,
			"byteLength":6656,
			"byteOffset":72816,
			"target":34962
		},
		{
			"buffer":0,
			"byteLength":2712,
			"byteOffset":79472,
			"target":34963
		},
		{
			"buffer":0,
			"byteLength":61176,
			"byteOffset":82184,
			"target":34962
		},
		{
			"buffer":0,
			"byteLength":61176,
			"byteOffset":143360,
			"target":34962
		},
		{
			"buffer":0,
			"byteLength":40784,
			"byteOffset":204536,
			"target":34962
		},
		{
			"buffer":0,
			"byteLength":24576,
			"byteOffset":245320,
			"target":34963
		},
		{
			"buffer":0,
			"byteLength":31800,
			"byteOffset":269896,
			"target":34962
		},
		{
			"buffer":0,
			"byteLength":31800,
			"byteOffset":301696,
			"target":34962
		},
		{
			"buffer":0,
			"byteLength":21200,
			"byteOffset":333496,
			"target":34962
		},
		{
			"buffer":0,
			"byteLength":10368,
			"byteOffset":354696,
			"target":34963
		},
		{
			"buffer":0,
			"byteLength":1344,
			"byteOffset":365064,
			"target":34962
		},
		{
			"buffer":0,
			"byteLength":1344,
			"byteOffset":366408,
			"target":34962
		},
		{
			"buffer":0,
			"byteLength":896,
			"byteOffset":367752,
			"target":34962
		},
		{
			"buffer":0,
			"byteLength":360,
			"byteOffset":368648,
			"target":34963
		},
		{
			"buffer":0,
			"byteLength":14400,
			"byteOffset":369008,
			"target":34962
		},
		{
			"buffer":0,
			"byteLength":14400,
			"byteOffset":383408,
			"target":34962
		},
		{
			"buffer":0,
			"byteLength":9600,
			"byteOffset":397808,
			"target":34962
		},
		{
			"buffer":0,
			"byteLength":4872,
			"byteOffset":407408,
			"target":34963
		},
		{
			"buffer":0,
			"byteLength":6528,
			"byteOffset":412280,
			"target":34962
		},
		{
			"buffer":0,
			"byteLength":6528,
			"byteOffset":418808,
			"target":34962
		},
		{
			"buffer":0,
			"byteLength":4352,
			"byteOffset":425336,
			"target":34962
		},
		{
			"buffer":0,
			"byteLength":1896,
			"byteOffset":429688,
			"target":34963
		},
		{
			"buffer":0,
			"byteLength":3648,
			"byteOffset":431584,
			"target":34962
		},
		{
			"buffer":0,
			"byteLength":3648,
			"byteOffset":435232,
			"target":34962
		},
		{
			"buffer":0,
			"byteLength":2432,
			"byteOffset":438880,
			"target":34962
		},
		{
			"buffer":0,
			"byteLength":864,
			"byteOffset":441312,
			"target":34963
		},
		{
			"buffer":0,
			"byteLength":1848,
			"byteOffset":442176,
			"target":34962
		},
		{
			"buffer":0,
			"byteLength":1848,
			"byteOffset":444024,
			"target":34962
		},
		{
			"buffer":0,
			"byteLength":1232,
			"byteOffset":445872,
			"target":34962
		},
		{
			"buffer":0,
			"byteLength":624,
			"byteOffset":447104,
			"target":34963
		},
		{
			"buffer":0,
			"byteLength":5520,
			"byteOffset":447728,
			"target":34962
		},
		{
			"buffer":0,
			"byteLength":5520,
			"byteOffset":453248,
			"target":34962
		},
		{
			"buffer":0,
			"byteLength":3680,
			"byteOffset":458768,
			"target":34962
		},
		{
			"buffer":0,
			"byteLength":1848,
			"byteOffset":462448,
			"target":34963
		},
		{
			"buffer":0,
			"byteLength":3648,
			"byteOffset":464296,
			"target":34962
		},
		{
			"buffer":0,
			"byteLength":3648,
			"byteOffset":467944,
			"target":34962
		},
		{
			"buffer":0,
			"byteLength":2432,
			"byteOffset":471592,
			"target":34962
		},
		{
			"buffer":0,
			"byteLength":1224,
			"byteOffset":474024,
			"target":34963
		},
		{
			"buffer":0,
			"byteLength":1824,
			"byteOffset":475248,
			"target":34962
		},
		{
			"buffer":0,
			"byteLength":1824,
			"byteOffset":477072,
			"target":34962
		},
		{
			"buffer":0,
			"byteLength":1216,
			"byteOffset":478896,
			"target":34962
		},
		{
			"buffer":0,
			"byteLength":840,
			"byteOffset":480112,
			"target":34963
		},
		{
			"buffer":0,
			"byteLength":1920,
			"byteOffset":480952,
			"target":34962
		},
		{
			"buffer":0,
			"byteLength":1920,
			"byteOffset":482872,
			"target":34962
		},
		{
			"buffer":0,
			"byteLength":1280,
			"byteOffset":484792,
			"target":34962
		},
		{
			"buffer":0,
			"byteLength":480,
			"byteOffset":486072,
			"target":34963
		},
		{
			"buffer":0,
			"byteLength":288,
			"byteOffset":486552,
			"target":34962
		},
		{
			"buffer":0,
			"byteLength":288,
			"byteOffset":486840,
			"target":34962
		},
		{
			"buffer":0,
			"byteLength":192,
			"byteOffset":487128,
			"target":34962
		},
		{
			"buffer":0,
			"byteLength":72,
			"byteOffset":487320,
			"target":34963
		},
		{
			"buffer":0,
			"byteLength":1004,
			"byteOffset":487392
		},
		{
			"buffer":0,
			"byteLength":4016,
			"byteOffset":488396
		},
		{
			"buffer":0,
			"byteLength":404,
			"byteOffset":492412
		},
		{
			"buffer":0,
			"byteLength":1212,
			"byteOffset":492816
		},
		{
			"buffer":0,
			"byteLength":8,
			"byteOffset":494028
		},
		{
			"buffer":0,
			"byteLength":32,
			"byteOffset":494036
		},
		{
			"buffer":0,
			"byteLength":1212,
			"byteOffset":494068
		}
	],
	"samplers":[
		{
			"magFilter":9729,
			"minFilter":9987
		}
	],
	"buffers":[
		{
			"byteLength":495280,
			"uri":"delosReyes_3dEnvironmentReference.bin"
		}
	]
}
