{
	"asset":{
		"generator":"Khronos glTF Blender I/O v4.0.44",
		"version":"2.0"
	},
	"scene":0,
	"scenes":[
		{
			"name":"Scene",
			"nodes":[
				0
			]
		}
	],
	"nodes":[
		{
			"mesh":0,
			"name":"couch_2",
			"scale":[
				3.351834774017334,
				2.2254812717437744,
				17.81344985961914
			],
			"translation":[
				27.361141204833984,
				6.771320819854736,
				-7.816109657287598
			]
		}
	],
	"materials":[
		{
			"doubleSided":true,
			"name":"Couch_2",
			"pbrMetallicRoughness":{
				"baseColorTexture":{
					"index":0
				},
				"metallicFactor":0,
				"roughnessFactor":0.5
			}
		}
	],
	"meshes":[
		{
			"name":"Cube.004",
			"primitives":[
				{
					"attributes":{
						"POSITION":0,
						"NORMAL":1,
						"TEXCOORD_0":2
					},
					"indices":3,
					"material":0
				}
			]
		}
	],
	"textures":[
		{
			"sampler":0,
			"source":0
		}
	],
	"images":[
		{
			"mimeType":"image/png",
			"name":"Couch_2",
			"uri":"Couch_2.png"
		}
	],
	"accessors":[
		{
			"bufferView":0,
			"componentType":5126,
			"count":5098,
			"max":[
				1.0000001192092896,
				0.9808430075645447,
				0.9978997707366943
			],
			"min":[
				-1.0000001192092896,
				-0.9975378513336182,
				-0.9962233304977417
			],
			"type":"VEC3"
		},
		{
			"bufferView":1,
			"componentType":5126,
			"count":5098,
			"type":"VEC3"
		},
		{
			"bufferView":2,
			"componentType":5126,
			"count":5098,
			"type":"VEC2"
		},
		{
			"bufferView":3,
			"componentType":5123,
			"count":12288,
			"type":"SCALAR"
		}
	],
	"bufferViews":[
		{
			"buffer":0,
			"byteLength":61176,
			"byteOffset":0,
			"target":34962
		},
		{
			"buffer":0,
			"byteLength":61176,
			"byteOffset":61176,
			"target":34962
		},
		{
			"buffer":0,
			"byteLength":40784,
			"byteOffset":122352,
			"target":34962
		},
		{
			"buffer":0,
			"byteLength":24576,
			"byteOffset":163136,
			"target":34963
		}
	],
	"samplers":[
		{
			"magFilter":9729,
			"minFilter":9987
		}
	],
	"buffers":[
		{
			"byteLength":187712,
			"uri":"delosReyes_couch_2.bin"
		}
	]
}
